<svg width="80" height="67" viewBox="0 0 80 67" fill="none" xmlns="http://www.w3.org/2000/svg">
<g filter="url(#filter0_dii_650_1658)">
<path d="M8 20C8 11.1634 15.1634 4 24 4H56C64.8366 4 72 11.1634 72 20V38.3984C72 47.235 64.8366 54.3984 56 54.3984H24C15.1634 54.3984 8 47.235 8 38.3984V20Z" fill="url(#paint0_linear_650_1658)" shape-rendering="crispEdges"/>
<path d="M8 20C8 11.1634 15.1634 4 24 4H56C64.8366 4 72 11.1634 72 20V29.1953H8V20Z" fill="url(#paint1_linear_650_1658)"/>
<g filter="url(#filter1_d_650_1658)">
<path d="M48.7962 26.9997C48.7962 32.4916 42.7037 38.2113 40.6578 39.9778C40.4672 40.1211 40.2352 40.1986 39.9967 40.1986C39.7583 40.1986 39.5263 40.1211 39.3357 39.9778C37.2898 38.2113 31.1973 32.4916 31.1973 26.9997C31.1973 24.6659 32.1244 22.4277 33.7746 20.7775C35.4248 19.1273 37.663 18.2002 39.9967 18.2002C42.3305 18.2002 44.5687 19.1273 46.2189 20.7775C47.8691 22.4277 48.7962 24.6659 48.7962 26.9997Z" stroke="white" stroke-width="2.74984" stroke-linecap="round" stroke-linejoin="round"/>
<path d="M39.9963 30.2992C41.8188 30.2992 43.2963 28.8218 43.2963 26.9992C43.2963 25.1767 41.8188 23.6992 39.9963 23.6992C38.1737 23.6992 36.6963 25.1767 36.6963 26.9992C36.6963 28.8218 38.1737 30.2992 39.9963 30.2992Z" stroke="white" stroke-width="2.74984" stroke-linecap="round" stroke-linejoin="round"/>
</g>
</g>
<defs>
<filter id="filter0_dii_650_1658" x="0" y="0" width="80" height="66.3984" filterUnits="userSpaceOnUse" color-interpolation-filters="sRGB">
<feFlood flood-opacity="0" result="BackgroundImageFix"/>
<feColorMatrix in="SourceAlpha" type="matrix" values="0 0 0 0 0 0 0 0 0 0 0 0 0 0 0 0 0 0 127 0" result="hardAlpha"/>
<feOffset dy="4"/>
<feGaussianBlur stdDeviation="4"/>
<feComposite in2="hardAlpha" operator="out"/>
<feColorMatrix type="matrix" values="0 0 0 0 0 0 0 0 0 0 0 0 0 0 0 0 0 0 0.1 0"/>
<feBlend mode="normal" in2="BackgroundImageFix" result="effect1_dropShadow_650_1658"/>
<feBlend mode="normal" in="SourceGraphic" in2="effect1_dropShadow_650_1658" result="shape"/>
<feColorMatrix in="SourceAlpha" type="matrix" values="0 0 0 0 0 0 0 0 0 0 0 0 0 0 0 0 0 0 127 0" result="hardAlpha"/>
<feOffset dy="-2"/>
<feComposite in2="hardAlpha" operator="arithmetic" k2="-1" k3="1"/>
<feColorMatrix type="matrix" values="0 0 0 0 0 0 0 0 0 0 0 0 0 0 0 0 0 0 0.1 0"/>
<feBlend mode="normal" in2="shape" result="effect2_innerShadow_650_1658"/>
<feColorMatrix in="SourceAlpha" type="matrix" values="0 0 0 0 0 0 0 0 0 0 0 0 0 0 0 0 0 0 127 0" result="hardAlpha"/>
<feOffset dy="1"/>
<feComposite in2="hardAlpha" operator="arithmetic" k2="-1" k3="1"/>
<feColorMatrix type="matrix" values="0 0 0 0 1 0 0 0 0 1 0 0 0 0 1 0 0 0 0.3 0"/>
<feBlend mode="normal" in2="effect2_innerShadow_650_1658" result="effect3_innerShadow_650_1658"/>
</filter>
<filter id="filter1_d_650_1658" x="18.7969" y="12" width="42.3984" height="42.3984" filterUnits="userSpaceOnUse" color-interpolation-filters="sRGB">
<feFlood flood-opacity="0" result="BackgroundImageFix"/>
<feColorMatrix in="SourceAlpha" type="matrix" values="0 0 0 0 0 0 0 0 0 0 0 0 0 0 0 0 0 0 127 0" result="hardAlpha"/>
<feOffset dy="4"/>
<feGaussianBlur stdDeviation="4"/>
<feColorMatrix type="matrix" values="0 0 0 0 0 0 0 0 0 0 0 0 0 0 0 0 0 0 0.15 0"/>
<feBlend mode="normal" in2="BackgroundImageFix" result="effect1_dropShadow_650_1658"/>
<feBlend mode="normal" in="SourceGraphic" in2="effect1_dropShadow_650_1658" result="shape"/>
</filter>
<linearGradient id="paint0_linear_650_1658" x1="8" y1="4" x2="56.9934" y2="66.2158" gradientUnits="userSpaceOnUse">
<stop stop-color="#3894A3"/>
<stop offset="1" stop-color="#056170"/>
</linearGradient>
<linearGradient id="paint1_linear_650_1658" x1="40" y1="4" x2="40" y2="29.1953" gradientUnits="userSpaceOnUse">
<stop stop-color="white" stop-opacity="0.2"/>
<stop offset="1" stop-opacity="0"/>
</linearGradient>
</defs>
</svg>
