<svg width="32" height="31" viewBox="0 0 32 31" fill="none" xmlns="http://www.w3.org/2000/svg">
<g filter="url(#filter0_d_655_6327)">
<path d="M18.6732 17.4724V6.2745C18.6732 5.90326 18.5257 5.54723 18.2632 5.28473C18.0007 5.02223 17.6447 4.87476 17.2734 4.87476H14.474C14.1027 4.87476 13.7467 5.02223 13.4842 5.28473C13.2217 5.54723 13.0742 5.90326 13.0742 6.2745V17.4724" stroke="white" stroke-width="1.74967" stroke-linecap="round" stroke-linejoin="round"/>
<path d="M21.4727 7.67456H10.2747C9.50168 7.67456 8.875 8.30125 8.875 9.0743V16.073C8.875 16.8461 9.50168 17.4727 10.2747 17.4727H21.4727C22.2457 17.4727 22.8724 16.8461 22.8724 16.073V9.0743C22.8724 8.30125 22.2457 7.67456 21.4727 7.67456Z" stroke="white" stroke-width="1.74967" stroke-linecap="round" stroke-linejoin="round"/>
</g>
<defs>
<filter id="filter0_d_655_6327" x="-0.525391" y="-0.524902" width="32.7969" height="32.7969" filterUnits="userSpaceOnUse" color-interpolation-filters="sRGB">
<feFlood flood-opacity="0" result="BackgroundImageFix"/>
<feColorMatrix in="SourceAlpha" type="matrix" values="0 0 0 0 0 0 0 0 0 0 0 0 0 0 0 0 0 0 127 0" result="hardAlpha"/>
<feOffset dy="4"/>
<feGaussianBlur stdDeviation="4"/>
<feColorMatrix type="matrix" values="0 0 0 0 0 0 0 0 0 0 0 0 0 0 0 0 0 0 0.15 0"/>
<feBlend mode="normal" in2="BackgroundImageFix" result="effect1_dropShadow_655_6327"/>
<feBlend mode="normal" in="SourceGraphic" in2="effect1_dropShadow_655_6327" result="shape"/>
</filter>
</defs>
</svg>
