<svg width="80" height="67" viewBox="0 0 80 67" fill="none" xmlns="http://www.w3.org/2000/svg">
<g filter="url(#filter0_dii_650_1622)">
<path d="M8 20C8 11.1634 15.1634 4 24 4H56C64.8366 4 72 11.1634 72 20V38.3984C72 47.235 64.8366 54.3984 56 54.3984H24C15.1634 54.3984 8 47.235 8 38.3984V20Z" fill="url(#paint0_linear_650_1622)" shape-rendering="crispEdges"/>
<path d="M8 20C8 11.1634 15.1634 4 24 4H56C64.8366 4 72 11.1634 72 20V29.1953H8V20Z" fill="url(#paint1_linear_650_1622)"/>
<g filter="url(#filter1_d_650_1622)">
<path d="M39.9961 32.4998V19.2998" stroke="white" stroke-width="2.74984" stroke-linecap="round" stroke-linejoin="round"/>
<path d="M49.8955 32.499V36.8988C49.8955 37.4822 49.6637 38.0418 49.2512 38.4543C48.8386 38.8669 48.2791 39.0986 47.6956 39.0986H32.2965C31.7131 39.0986 31.1536 38.8669 30.741 38.4543C30.3285 38.0418 30.0967 37.4822 30.0967 36.8988V32.499" stroke="white" stroke-width="2.74984" stroke-linecap="round" stroke-linejoin="round"/>
<path d="M34.4966 26.999L39.9966 32.499L45.4966 26.999" stroke="white" stroke-width="2.74984" stroke-linecap="round" stroke-linejoin="round"/>
</g>
</g>
<defs>
<filter id="filter0_dii_650_1622" x="0" y="0" width="80" height="66.3984" filterUnits="userSpaceOnUse" color-interpolation-filters="sRGB">
<feFlood flood-opacity="0" result="BackgroundImageFix"/>
<feColorMatrix in="SourceAlpha" type="matrix" values="0 0 0 0 0 0 0 0 0 0 0 0 0 0 0 0 0 0 127 0" result="hardAlpha"/>
<feOffset dy="4"/>
<feGaussianBlur stdDeviation="4"/>
<feComposite in2="hardAlpha" operator="out"/>
<feColorMatrix type="matrix" values="0 0 0 0 0 0 0 0 0 0 0 0 0 0 0 0 0 0 0.1 0"/>
<feBlend mode="normal" in2="BackgroundImageFix" result="effect1_dropShadow_650_1622"/>
<feBlend mode="normal" in="SourceGraphic" in2="effect1_dropShadow_650_1622" result="shape"/>
<feColorMatrix in="SourceAlpha" type="matrix" values="0 0 0 0 0 0 0 0 0 0 0 0 0 0 0 0 0 0 127 0" result="hardAlpha"/>
<feOffset dy="-2"/>
<feComposite in2="hardAlpha" operator="arithmetic" k2="-1" k3="1"/>
<feColorMatrix type="matrix" values="0 0 0 0 0 0 0 0 0 0 0 0 0 0 0 0 0 0 0.1 0"/>
<feBlend mode="normal" in2="shape" result="effect2_innerShadow_650_1622"/>
<feColorMatrix in="SourceAlpha" type="matrix" values="0 0 0 0 0 0 0 0 0 0 0 0 0 0 0 0 0 0 127 0" result="hardAlpha"/>
<feOffset dy="1"/>
<feComposite in2="hardAlpha" operator="arithmetic" k2="-1" k3="1"/>
<feColorMatrix type="matrix" values="0 0 0 0 1 0 0 0 0 1 0 0 0 0 1 0 0 0 0.3 0"/>
<feBlend mode="normal" in2="effect2_innerShadow_650_1622" result="effect3_innerShadow_650_1622"/>
</filter>
<filter id="filter1_d_650_1622" x="18.7969" y="12" width="42.3984" height="42.3984" filterUnits="userSpaceOnUse" color-interpolation-filters="sRGB">
<feFlood flood-opacity="0" result="BackgroundImageFix"/>
<feColorMatrix in="SourceAlpha" type="matrix" values="0 0 0 0 0 0 0 0 0 0 0 0 0 0 0 0 0 0 127 0" result="hardAlpha"/>
<feOffset dy="4"/>
<feGaussianBlur stdDeviation="4"/>
<feColorMatrix type="matrix" values="0 0 0 0 0 0 0 0 0 0 0 0 0 0 0 0 0 0 0.15 0"/>
<feBlend mode="normal" in2="BackgroundImageFix" result="effect1_dropShadow_650_1622"/>
<feBlend mode="normal" in="SourceGraphic" in2="effect1_dropShadow_650_1622" result="shape"/>
</filter>
<linearGradient id="paint0_linear_650_1622" x1="8" y1="4" x2="56.9934" y2="66.2158" gradientUnits="userSpaceOnUse">
<stop stop-color="#3894A3"/>
<stop offset="1" stop-color="#056170"/>
</linearGradient>
<linearGradient id="paint1_linear_650_1622" x1="40" y1="4" x2="40" y2="29.1953" gradientUnits="userSpaceOnUse">
<stop stop-color="white" stop-opacity="0.2"/>
<stop offset="1" stop-opacity="0"/>
</linearGradient>
</defs>
</svg>
