<svg width="43" height="42" viewBox="0 0 43 42" fill="none" xmlns="http://www.w3.org/2000/svg">
<g filter="url(#filter0_d_655_3787)">
<path d="M20.9309 5.85383C20.9835 5.7476 21.0647 5.65817 21.1654 5.59565C21.2661 5.53313 21.3823 5.5 21.5009 5.5C21.6194 5.5 21.7356 5.53313 21.8363 5.59565C21.937 5.65817 22.0182 5.7476 22.0708 5.85383L24.8425 11.468C25.0251 11.8375 25.2946 12.1572 25.628 12.3997C25.9613 12.6421 26.3485 12.8 26.7563 12.8599L32.9548 13.767C33.0723 13.784 33.1826 13.8335 33.2734 13.91C33.3641 13.9865 33.4317 14.0868 33.4684 14.1997C33.5051 14.3125 33.5095 14.4334 33.4811 14.5486C33.4526 14.6638 33.3926 14.7688 33.3076 14.8517L28.8249 19.2168C28.5292 19.5049 28.308 19.8605 28.1803 20.253C28.0526 20.6456 28.0222 21.0633 28.0917 21.4701L29.15 27.6375C29.1708 27.7549 29.1581 27.8757 29.1134 27.9863C29.0688 28.0968 28.994 28.1925 28.8975 28.2626C28.8011 28.3327 28.6869 28.3742 28.5679 28.3825C28.449 28.3907 28.3302 28.3654 28.2249 28.3094L22.6839 25.3961C22.3188 25.2044 21.9126 25.1042 21.5003 25.1042C21.0879 25.1042 20.6817 25.2044 20.3166 25.3961L14.7768 28.3094C14.6716 28.3651 14.5529 28.3901 14.4342 28.3817C14.3154 28.3733 14.2015 28.3317 14.1052 28.2617C14.009 28.1917 13.9343 28.096 13.8897 27.9857C13.8451 27.8754 13.8323 27.7547 13.8529 27.6375L14.91 21.4713C14.9798 21.0643 14.9495 20.6463 14.8218 20.2535C14.6941 19.8607 14.4728 19.5049 14.1769 19.2168L9.69414 14.8529C9.60846 14.7701 9.54775 14.665 9.51891 14.5494C9.49008 14.4338 9.49428 14.3125 9.53105 14.1992C9.56782 14.0859 9.63567 13.9852 9.72687 13.9085C9.81807 13.8319 9.92896 13.7825 10.0469 13.7658L16.2442 12.8599C16.6525 12.8005 17.0402 12.6428 17.374 12.4003C17.7078 12.1579 17.9777 11.8379 18.1604 11.468L20.9309 5.85383Z" stroke="white" stroke-width="2.99967" stroke-linecap="round" stroke-linejoin="round"/>
</g>
<defs>
<filter id="filter0_d_655_3787" x="-0.897461" y="-0.899902" width="44.7969" height="44.7969" filterUnits="userSpaceOnUse" color-interpolation-filters="sRGB">
<feFlood flood-opacity="0" result="BackgroundImageFix"/>
<feColorMatrix in="SourceAlpha" type="matrix" values="0 0 0 0 0 0 0 0 0 0 0 0 0 0 0 0 0 0 127 0" result="hardAlpha"/>
<feOffset dy="4"/>
<feGaussianBlur stdDeviation="4"/>
<feColorMatrix type="matrix" values="0 0 0 0 0 0 0 0 0 0 0 0 0 0 0 0 0 0 0.15 0"/>
<feBlend mode="normal" in2="BackgroundImageFix" result="effect1_dropShadow_655_3787"/>
<feBlend mode="normal" in="SourceGraphic" in2="effect1_dropShadow_655_3787" result="shape"/>
</filter>
</defs>
</svg>
