<svg width="49" height="52" viewBox="0 0 49 52" fill="none" xmlns="http://www.w3.org/2000/svg">
<g filter="url(#filter0_d_655_3827)">
<path d="M11.6054 25.2034C11.3026 25.2044 11.0058 25.1195 10.7494 24.9586C10.4929 24.7976 10.2874 24.5672 10.1567 24.2941C10.026 24.021 9.97553 23.7164 10.0111 23.4157C10.0466 23.115 10.1667 22.8306 10.3574 22.5955L26.1968 6.27616C26.3156 6.13901 26.4775 6.04634 26.6559 6.01334C26.8344 5.98034 27.0187 6.00899 27.1787 6.09457C27.3387 6.18015 27.4649 6.31759 27.5365 6.48432C27.6081 6.65105 27.6209 6.83717 27.5727 7.01213L24.5009 16.6437C24.4103 16.8862 24.3799 17.1469 24.4122 17.4037C24.4446 17.6605 24.5387 17.9056 24.6866 18.118C24.8345 18.3303 25.0317 18.5037 25.2613 18.6231C25.4909 18.7425 25.746 18.8045 26.0048 18.8036H37.2043C37.5071 18.8026 37.804 18.8875 38.0604 19.0485C38.3168 19.2094 38.5223 19.4399 38.653 19.713C38.7837 19.9861 38.8342 20.2906 38.7987 20.5913C38.7632 20.892 38.643 21.1764 38.4523 21.4115L22.6129 37.7309C22.4941 37.868 22.3322 37.9607 22.1538 37.9937C21.9754 38.0267 21.791 37.998 21.631 37.9125C21.471 37.8269 21.3449 37.6894 21.2733 37.5227C21.2017 37.356 21.1889 37.1699 21.237 36.9949L24.3089 27.3633C24.3995 27.1209 24.4299 26.8601 24.3975 26.6033C24.3652 26.3465 24.271 26.1015 24.1231 25.8891C23.9753 25.6767 23.7781 25.5033 23.5485 25.3839C23.3189 25.2645 23.0637 25.2025 22.8049 25.2034H11.6054Z" stroke="white" stroke-width="3.99984" stroke-linecap="round" stroke-linejoin="round"/>
</g>
<defs>
<filter id="filter0_d_655_3827" x="-2.79492" y="-1.1958" width="54.3984" height="54.3984" filterUnits="userSpaceOnUse" color-interpolation-filters="sRGB">
<feFlood flood-opacity="0" result="BackgroundImageFix"/>
<feColorMatrix in="SourceAlpha" type="matrix" values="0 0 0 0 0 0 0 0 0 0 0 0 0 0 0 0 0 0 127 0" result="hardAlpha"/>
<feOffset dy="4"/>
<feGaussianBlur stdDeviation="4"/>
<feColorMatrix type="matrix" values="0 0 0 0 0 0 0 0 0 0 0 0 0 0 0 0 0 0 0.15 0"/>
<feBlend mode="normal" in2="BackgroundImageFix" result="effect1_dropShadow_655_3827"/>
<feBlend mode="normal" in="SourceGraphic" in2="effect1_dropShadow_655_3827" result="shape"/>
</filter>
</defs>
</svg>
