<svg width="76" height="64" viewBox="0 0 76 64" fill="none" xmlns="http://www.w3.org/2000/svg">
<g filter="url(#filter0_dii_655_6275)">
<path d="M8 20C8 11.1634 15.1634 4 24 4H52C60.8366 4 68 11.1634 68 20V36C68 44.8366 60.8366 52 52 52H24C15.1634 52 8 44.8366 8 36V20Z" fill="url(#paint0_linear_655_6275)" shape-rendering="crispEdges"/>
<path d="M8 20C8 11.1634 15.1634 4 24 4H52C60.8366 4 68 11.1634 68 20V28H8V20Z" fill="url(#paint1_linear_655_6275)"/>
<g filter="url(#filter1_d_655_6275)">
<path d="M38 18V38" stroke="white" stroke-width="2.5" stroke-linecap="round" stroke-linejoin="round"/>
<path d="M43 21H35.5C34.5717 21 33.6815 21.3687 33.0251 22.0251C32.3687 22.6815 32 23.5717 32 24.5C32 25.4283 32.3687 26.3185 33.0251 26.9749C33.6815 27.6313 34.5717 28 35.5 28H40.5C41.4283 28 42.3185 28.3687 42.9749 29.0251C43.6313 29.6815 44 30.5717 44 31.5C44 32.4283 43.6313 33.3185 42.9749 33.9749C42.3185 34.6313 41.4283 35 40.5 35H32" stroke="white" stroke-width="2.5" stroke-linecap="round" stroke-linejoin="round"/>
</g>
</g>
<defs>
<filter id="filter0_dii_655_6275" x="0" y="0" width="76" height="64" filterUnits="userSpaceOnUse" color-interpolation-filters="sRGB">
<feFlood flood-opacity="0" result="BackgroundImageFix"/>
<feColorMatrix in="SourceAlpha" type="matrix" values="0 0 0 0 0 0 0 0 0 0 0 0 0 0 0 0 0 0 127 0" result="hardAlpha"/>
<feOffset dy="4"/>
<feGaussianBlur stdDeviation="4"/>
<feComposite in2="hardAlpha" operator="out"/>
<feColorMatrix type="matrix" values="0 0 0 0 0 0 0 0 0 0 0 0 0 0 0 0 0 0 0.1 0"/>
<feBlend mode="normal" in2="BackgroundImageFix" result="effect1_dropShadow_655_6275"/>
<feBlend mode="normal" in="SourceGraphic" in2="effect1_dropShadow_655_6275" result="shape"/>
<feColorMatrix in="SourceAlpha" type="matrix" values="0 0 0 0 0 0 0 0 0 0 0 0 0 0 0 0 0 0 127 0" result="hardAlpha"/>
<feOffset dy="-2"/>
<feComposite in2="hardAlpha" operator="arithmetic" k2="-1" k3="1"/>
<feColorMatrix type="matrix" values="0 0 0 0 0 0 0 0 0 0 0 0 0 0 0 0 0 0 0.1 0"/>
<feBlend mode="normal" in2="shape" result="effect2_innerShadow_655_6275"/>
<feColorMatrix in="SourceAlpha" type="matrix" values="0 0 0 0 0 0 0 0 0 0 0 0 0 0 0 0 0 0 127 0" result="hardAlpha"/>
<feOffset dy="1"/>
<feComposite in2="hardAlpha" operator="arithmetic" k2="-1" k3="1"/>
<feColorMatrix type="matrix" values="0 0 0 0 1 0 0 0 0 1 0 0 0 0 1 0 0 0 0.3 0"/>
<feBlend mode="normal" in2="effect2_innerShadow_655_6275" result="effect3_innerShadow_655_6275"/>
</filter>
<filter id="filter1_d_655_6275" x="18" y="12" width="40" height="40" filterUnits="userSpaceOnUse" color-interpolation-filters="sRGB">
<feFlood flood-opacity="0" result="BackgroundImageFix"/>
<feColorMatrix in="SourceAlpha" type="matrix" values="0 0 0 0 0 0 0 0 0 0 0 0 0 0 0 0 0 0 127 0" result="hardAlpha"/>
<feOffset dy="4"/>
<feGaussianBlur stdDeviation="4"/>
<feColorMatrix type="matrix" values="0 0 0 0 0 0 0 0 0 0 0 0 0 0 0 0 0 0 0.15 0"/>
<feBlend mode="normal" in2="BackgroundImageFix" result="effect1_dropShadow_655_6275"/>
<feBlend mode="normal" in="SourceGraphic" in2="effect1_dropShadow_655_6275" result="shape"/>
</filter>
<linearGradient id="paint0_linear_655_6275" x1="8" y1="4" x2="54.8293" y2="62.5366" gradientUnits="userSpaceOnUse">
<stop stop-color="#2F414F"/>
<stop offset="1" stop-color="#000E1C"/>
</linearGradient>
<linearGradient id="paint1_linear_655_6275" x1="38" y1="4" x2="38" y2="28" gradientUnits="userSpaceOnUse">
<stop stop-color="white" stop-opacity="0.2"/>
<stop offset="1" stop-opacity="0"/>
</linearGradient>
</defs>
</svg>
