<svg width="76" height="64" viewBox="0 0 76 64" fill="none" xmlns="http://www.w3.org/2000/svg">
<g filter="url(#filter0_dii_650_1741)">
<path d="M8 20C8 11.1634 15.1634 4 24 4H52C60.8366 4 68 11.1634 68 20V36C68 44.8366 60.8366 52 52 52H24C15.1634 52 8 44.8366 8 36V20Z" fill="url(#paint0_linear_650_1741)" shape-rendering="crispEdges"/>
<path d="M8 20C8 11.1634 15.1634 4 24 4H52C60.8366 4 68 11.1634 68 20V28H8V20Z" fill="url(#paint1_linear_650_1741)"/>
<g filter="url(#filter1_d_650_1741)">
<path d="M42 37V35C42 33.9391 41.5786 32.9217 40.8284 32.1716C40.0783 31.4214 39.0609 31 38 31H32C30.9391 31 29.9217 31.4214 29.1716 32.1716C28.4214 32.9217 28 33.9391 28 35V37" stroke="white" stroke-width="2.5" stroke-linecap="round" stroke-linejoin="round"/>
<path d="M42 19.1279C42.8578 19.3503 43.6174 19.8512 44.1597 20.552C44.702 21.2528 44.9962 22.1138 44.9962 22.9999C44.9962 23.886 44.702 24.7471 44.1597 25.4479C43.6174 26.1487 42.8578 26.6496 42 26.8719" stroke="white" stroke-width="2.5" stroke-linecap="round" stroke-linejoin="round"/>
<path d="M48 36.9999V34.9999C47.9993 34.1136 47.7044 33.2527 47.1614 32.5522C46.6184 31.8517 45.8581 31.3515 45 31.1299" stroke="white" stroke-width="2.5" stroke-linecap="round" stroke-linejoin="round"/>
<path d="M35 27C37.2091 27 39 25.2091 39 23C39 20.7909 37.2091 19 35 19C32.7909 19 31 20.7909 31 23C31 25.2091 32.7909 27 35 27Z" stroke="white" stroke-width="2.5" stroke-linecap="round" stroke-linejoin="round"/>
</g>
</g>
<defs>
<filter id="filter0_dii_650_1741" x="0" y="0" width="76" height="64" filterUnits="userSpaceOnUse" color-interpolation-filters="sRGB">
<feFlood flood-opacity="0" result="BackgroundImageFix"/>
<feColorMatrix in="SourceAlpha" type="matrix" values="0 0 0 0 0 0 0 0 0 0 0 0 0 0 0 0 0 0 127 0" result="hardAlpha"/>
<feOffset dy="4"/>
<feGaussianBlur stdDeviation="4"/>
<feComposite in2="hardAlpha" operator="out"/>
<feColorMatrix type="matrix" values="0 0 0 0 0 0 0 0 0 0 0 0 0 0 0 0 0 0 0.1 0"/>
<feBlend mode="normal" in2="BackgroundImageFix" result="effect1_dropShadow_650_1741"/>
<feBlend mode="normal" in="SourceGraphic" in2="effect1_dropShadow_650_1741" result="shape"/>
<feColorMatrix in="SourceAlpha" type="matrix" values="0 0 0 0 0 0 0 0 0 0 0 0 0 0 0 0 0 0 127 0" result="hardAlpha"/>
<feOffset dy="-2"/>
<feComposite in2="hardAlpha" operator="arithmetic" k2="-1" k3="1"/>
<feColorMatrix type="matrix" values="0 0 0 0 0 0 0 0 0 0 0 0 0 0 0 0 0 0 0.1 0"/>
<feBlend mode="normal" in2="shape" result="effect2_innerShadow_650_1741"/>
<feColorMatrix in="SourceAlpha" type="matrix" values="0 0 0 0 0 0 0 0 0 0 0 0 0 0 0 0 0 0 127 0" result="hardAlpha"/>
<feOffset dy="1"/>
<feComposite in2="hardAlpha" operator="arithmetic" k2="-1" k3="1"/>
<feColorMatrix type="matrix" values="0 0 0 0 1 0 0 0 0 1 0 0 0 0 1 0 0 0 0.3 0"/>
<feBlend mode="normal" in2="effect2_innerShadow_650_1741" result="effect3_innerShadow_650_1741"/>
</filter>
<filter id="filter1_d_650_1741" x="18" y="12" width="40" height="40" filterUnits="userSpaceOnUse" color-interpolation-filters="sRGB">
<feFlood flood-opacity="0" result="BackgroundImageFix"/>
<feColorMatrix in="SourceAlpha" type="matrix" values="0 0 0 0 0 0 0 0 0 0 0 0 0 0 0 0 0 0 127 0" result="hardAlpha"/>
<feOffset dy="4"/>
<feGaussianBlur stdDeviation="4"/>
<feColorMatrix type="matrix" values="0 0 0 0 0 0 0 0 0 0 0 0 0 0 0 0 0 0 0.15 0"/>
<feBlend mode="normal" in2="BackgroundImageFix" result="effect1_dropShadow_650_1741"/>
<feBlend mode="normal" in="SourceGraphic" in2="effect1_dropShadow_650_1741" result="shape"/>
</filter>
<linearGradient id="paint0_linear_650_1741" x1="8" y1="4" x2="54.8293" y2="62.5366" gradientUnits="userSpaceOnUse">
<stop stop-color="#2F414F"/>
<stop offset="1" stop-color="#000E1C"/>
</linearGradient>
<linearGradient id="paint1_linear_650_1741" x1="38" y1="4" x2="38" y2="28" gradientUnits="userSpaceOnUse">
<stop stop-color="white" stop-opacity="0.2"/>
<stop offset="1" stop-opacity="0"/>
</linearGradient>
</defs>
</svg>
