<svg width="39" height="41" viewBox="0 0 39 41" fill="none" xmlns="http://www.w3.org/2000/svg">
<g filter="url(#filter0_d_655_4044)">
<path d="M10.4787 18.5771C10.2705 18.5778 10.0665 18.5194 9.89017 18.4088C9.71387 18.2981 9.5726 18.1397 9.48275 17.9519C9.3929 17.7642 9.35817 17.5548 9.3826 17.3481C9.40703 17.1414 9.4896 16.9458 9.62074 16.7842L20.5101 5.56485C20.5918 5.47057 20.7031 5.40685 20.8258 5.38417C20.9484 5.36149 21.0752 5.38118 21.1852 5.44002C21.2952 5.49885 21.3819 5.59334 21.4311 5.70796C21.4803 5.82259 21.4891 5.95054 21.456 6.07082L19.3442 12.6924C19.2819 12.8591 19.261 13.0384 19.2832 13.2149C19.3055 13.3914 19.3702 13.5599 19.4719 13.7059C19.5735 13.852 19.7091 13.9711 19.8669 14.0532C20.0248 14.1353 20.2002 14.1779 20.3781 14.1773H28.0776C28.2858 14.1766 28.4899 14.235 28.6662 14.3457C28.8425 14.4563 28.9837 14.6147 29.0736 14.8025C29.1634 14.9902 29.1982 15.1996 29.1737 15.4063C29.1493 15.6131 29.0667 15.8086 28.9356 15.9702L18.0462 27.1896C17.9646 27.2839 17.8532 27.3476 17.7306 27.3703C17.6079 27.3929 17.4812 27.3732 17.3712 27.3144C17.2612 27.2556 17.1744 27.1611 17.1252 27.0465C17.076 26.9318 17.0672 26.8039 17.1003 26.6836L19.2122 20.062C19.2744 19.8953 19.2954 19.716 19.2731 19.5395C19.2509 19.363 19.1861 19.1945 19.0845 19.0485C18.9828 18.9025 18.8472 18.7833 18.6894 18.7012C18.5316 18.6191 18.3562 18.5765 18.1782 18.5771H10.4787Z" stroke="white" stroke-width="2.74984" stroke-linecap="round" stroke-linejoin="round"/>
</g>
<defs>
<filter id="filter0_d_655_4044" x="-1.9209" y="-0.822266" width="42.3984" height="42.3984" filterUnits="userSpaceOnUse" color-interpolation-filters="sRGB">
<feFlood flood-opacity="0" result="BackgroundImageFix"/>
<feColorMatrix in="SourceAlpha" type="matrix" values="0 0 0 0 0 0 0 0 0 0 0 0 0 0 0 0 0 0 127 0" result="hardAlpha"/>
<feOffset dy="4"/>
<feGaussianBlur stdDeviation="4"/>
<feColorMatrix type="matrix" values="0 0 0 0 0 0 0 0 0 0 0 0 0 0 0 0 0 0 0.15 0"/>
<feBlend mode="normal" in2="BackgroundImageFix" result="effect1_dropShadow_655_4044"/>
<feBlend mode="normal" in="SourceGraphic" in2="effect1_dropShadow_655_4044" result="shape"/>
</filter>
</defs>
</svg>
