<svg width="23" height="25" viewBox="0 0 23 25" fill="none" xmlns="http://www.w3.org/2000/svg">
<path d="M2.47869 14.5771C2.27054 14.5778 2.06646 14.5194 1.89017 14.4088C1.71387 14.2981 1.5726 14.1397 1.48275 13.9519C1.3929 13.7642 1.35817 13.5548 1.3826 13.3481C1.40703 13.1414 1.4896 12.9458 1.62074 12.7842L12.5101 1.56485C12.5918 1.47057 12.7031 1.40685 12.8258 1.38417C12.9484 1.36149 13.0752 1.38118 13.1852 1.44002C13.2952 1.49885 13.3819 1.59334 13.4311 1.70796C13.4803 1.82259 13.4891 1.95054 13.456 2.07082L11.3442 8.69243C11.2819 8.8591 11.261 9.03838 11.2832 9.21491C11.3055 9.39143 11.3702 9.55993 11.4719 9.70594C11.5735 9.85195 11.7091 9.97112 11.8669 10.0532C12.0248 10.1353 12.2002 10.1779 12.3781 10.1773H20.0776C20.2858 10.1766 20.4899 10.235 20.6662 10.3457C20.8425 10.4563 20.9837 10.6147 21.0736 10.8025C21.1634 10.9902 21.1982 11.1996 21.1737 11.4063C21.1493 11.6131 21.0667 11.8086 20.9356 11.9702L10.0462 23.1896C9.96456 23.2839 9.85324 23.3476 9.73058 23.3703C9.60791 23.3929 9.48118 23.3732 9.37118 23.3144C9.26117 23.2556 9.17445 23.1611 9.12522 23.0465C9.076 22.9318 9.06721 22.8039 9.10029 22.6836L11.2122 16.062C11.2744 15.8953 11.2954 15.716 11.2731 15.5395C11.2509 15.363 11.1861 15.1945 11.0845 15.0485C10.9828 14.9025 10.8472 14.7833 10.6894 14.7012C10.5316 14.6191 10.3562 14.5765 10.1782 14.5771H2.47869Z" stroke="white" stroke-width="2.74984" stroke-linecap="round" stroke-linejoin="round"/>
</svg>
