<svg width="32" height="41" viewBox="0 0 32 41" fill="none" xmlns="http://www.w3.org/2000/svg">
<g filter="url(#filter0_d_655_4076)">
<path d="M19.275 18.575C19.495 17.475 20.045 16.705 20.925 15.825C22.025 14.835 22.575 13.405 22.575 11.975C22.575 10.2246 21.8796 8.54584 20.6419 7.3081C19.4042 6.07036 17.7254 5.375 15.975 5.375C14.2246 5.375 12.5458 6.07036 11.3081 7.3081C10.0704 8.54584 9.375 10.2246 9.375 11.975C9.375 13.075 9.595 14.395 11.025 15.825C11.795 16.595 12.455 17.475 12.675 18.575" stroke="white" stroke-width="2.74984" stroke-linecap="round" stroke-linejoin="round"/>
<path d="M12.6748 22.9741H19.2748" stroke="white" stroke-width="2.74984" stroke-linecap="round" stroke-linejoin="round"/>
<path d="M13.7744 27.374H18.1744" stroke="white" stroke-width="2.74984" stroke-linecap="round" stroke-linejoin="round"/>
</g>
<defs>
<filter id="filter0_d_655_4076" x="-5.22461" y="-0.824707" width="42.3984" height="42.3984" filterUnits="userSpaceOnUse" color-interpolation-filters="sRGB">
<feFlood flood-opacity="0" result="BackgroundImageFix"/>
<feColorMatrix in="SourceAlpha" type="matrix" values="0 0 0 0 0 0 0 0 0 0 0 0 0 0 0 0 0 0 127 0" result="hardAlpha"/>
<feOffset dy="4"/>
<feGaussianBlur stdDeviation="4"/>
<feColorMatrix type="matrix" values="0 0 0 0 0 0 0 0 0 0 0 0 0 0 0 0 0 0 0.15 0"/>
<feBlend mode="normal" in2="BackgroundImageFix" result="effect1_dropShadow_655_4076"/>
<feBlend mode="normal" in="SourceGraphic" in2="effect1_dropShadow_655_4076" result="shape"/>
</filter>
</defs>
</svg>
