<svg width="31" height="31" viewBox="0 0 31 31" fill="none" xmlns="http://www.w3.org/2000/svg">
<g filter="url(#filter0_d_655_6370)">
<path d="M21.4635 11.5047C21.3979 12.7198 20.9818 13.8898 20.2654 14.8734C19.549 15.857 18.563 16.6121 17.4267 17.0473C16.2903 17.4825 15.0522 17.5793 13.8621 17.3259C12.6719 17.0724 11.5806 16.4797 10.7201 15.6193C9.85964 14.7589 9.26679 13.6677 9.01325 12.4776C8.75971 11.2874 8.85632 10.0493 9.29142 8.91293C9.72651 7.77653 10.4815 6.79048 11.465 6.07399C12.4485 5.3575 13.6186 4.94123 14.8336 4.87551C15.1171 4.86011 15.2655 5.19745 15.115 5.4375C14.6117 6.24274 14.3962 7.19479 14.5036 8.13827C14.6111 9.08175 15.0351 9.96096 15.7066 10.6324C16.3781 11.3039 17.2573 11.7279 18.2007 11.8354C19.1442 11.9428 20.0963 11.7273 20.9015 11.224C21.1423 11.0736 21.4789 11.2212 21.4635 11.5047Z" stroke="white" stroke-width="1.74967" stroke-linecap="round" stroke-linejoin="round"/>
</g>
<defs>
<filter id="filter0_d_655_6370" x="-1.22266" y="-1.23389" width="32.7969" height="32.7969" filterUnits="userSpaceOnUse" color-interpolation-filters="sRGB">
<feFlood flood-opacity="0" result="BackgroundImageFix"/>
<feColorMatrix in="SourceAlpha" type="matrix" values="0 0 0 0 0 0 0 0 0 0 0 0 0 0 0 0 0 0 127 0" result="hardAlpha"/>
<feOffset dy="4"/>
<feGaussianBlur stdDeviation="4"/>
<feColorMatrix type="matrix" values="0 0 0 0 0 0 0 0 0 0 0 0 0 0 0 0 0 0 0.15 0"/>
<feBlend mode="normal" in2="BackgroundImageFix" result="effect1_dropShadow_655_6370"/>
<feBlend mode="normal" in="SourceGraphic" in2="effect1_dropShadow_655_6370" result="shape"/>
</filter>
</defs>
</svg>
