<svg width="41" height="41" viewBox="0 0 41 41" fill="none" xmlns="http://www.w3.org/2000/svg">
<g filter="url(#filter0_d_655_7261)">
<path d="M20.3743 27.3737C26.4491 27.3737 31.3737 22.4491 31.3737 16.3743C31.3737 10.2996 26.4491 5.375 20.3743 5.375C14.2996 5.375 9.375 10.2996 9.375 16.3743C9.375 22.4491 14.2996 27.3737 20.3743 27.3737Z" stroke="white" stroke-width="2.74984" stroke-linecap="round" stroke-linejoin="round"/>
<path d="M20.3754 22.9744C24.0205 22.9744 26.9754 20.0195 26.9754 16.3744C26.9754 12.7293 24.0205 9.77441 20.3754 9.77441C16.7303 9.77441 13.7754 12.7293 13.7754 16.3744C13.7754 20.0195 16.7303 22.9744 20.3754 22.9744Z" stroke="white" stroke-width="2.74984" stroke-linecap="round" stroke-linejoin="round"/>
<path d="M20.3758 18.5743C21.5908 18.5743 22.5758 17.5893 22.5758 16.3743C22.5758 15.1593 21.5908 14.1743 20.3758 14.1743C19.1608 14.1743 18.1758 15.1593 18.1758 16.3743C18.1758 17.5893 19.1608 18.5743 20.3758 18.5743Z" stroke="white" stroke-width="2.74984" stroke-linecap="round" stroke-linejoin="round"/>
</g>
<defs>
<filter id="filter0_d_655_7261" x="-0.824219" y="-0.825195" width="42.3984" height="42.3984" filterUnits="userSpaceOnUse" color-interpolation-filters="sRGB">
<feFlood flood-opacity="0" result="BackgroundImageFix"/>
<feColorMatrix in="SourceAlpha" type="matrix" values="0 0 0 0 0 0 0 0 0 0 0 0 0 0 0 0 0 0 127 0" result="hardAlpha"/>
<feOffset dy="4"/>
<feGaussianBlur stdDeviation="4"/>
<feColorMatrix type="matrix" values="0 0 0 0 0 0 0 0 0 0 0 0 0 0 0 0 0 0 0.15 0"/>
<feBlend mode="normal" in2="BackgroundImageFix" result="effect1_dropShadow_655_7261"/>
<feBlend mode="normal" in="SourceGraphic" in2="effect1_dropShadow_655_7261" result="shape"/>
</filter>
</defs>
</svg>
