<svg width="37" height="41" viewBox="0 0 37 41" fill="none" xmlns="http://www.w3.org/2000/svg">
<g filter="url(#filter0_d_1245_269)">
<path d="M26.974 17.4748C26.974 22.9745 23.1242 25.7243 18.5485 27.3192C18.3089 27.4004 18.0486 27.3965 17.8115 27.3082C13.2248 25.7243 9.375 22.9745 9.375 17.4748V9.77523C9.375 9.48351 9.49089 9.20374 9.69716 8.99746C9.90344 8.79119 10.1832 8.6753 10.4749 8.6753C12.6748 8.6753 15.4246 7.35538 17.3385 5.68348C17.5716 5.48439 17.868 5.375 18.1745 5.375C18.481 5.375 18.7774 5.48439 19.0104 5.68348C20.9353 7.36638 23.6742 8.6753 25.874 8.6753C26.1657 8.6753 26.4455 8.79119 26.6518 8.99746C26.8581 9.20374 26.974 9.48351 26.974 9.77523V17.4748Z" stroke="white" stroke-width="2.74984" stroke-linecap="round" stroke-linejoin="round"/>
</g>
<defs>
<filter id="filter0_d_1245_269" x="-3.02539" y="-0.824707" width="42.3984" height="42.3984" filterUnits="userSpaceOnUse" color-interpolation-filters="sRGB">
<feFlood flood-opacity="0" result="BackgroundImageFix"/>
<feColorMatrix in="SourceAlpha" type="matrix" values="0 0 0 0 0 0 0 0 0 0 0 0 0 0 0 0 0 0 127 0" result="hardAlpha"/>
<feOffset dy="4"/>
<feGaussianBlur stdDeviation="4"/>
<feColorMatrix type="matrix" values="0 0 0 0 0 0 0 0 0 0 0 0 0 0 0 0 0 0 0.15 0"/>
<feBlend mode="normal" in2="BackgroundImageFix" result="effect1_dropShadow_1245_269"/>
<feBlend mode="normal" in="SourceGraphic" in2="effect1_dropShadow_1245_269" result="shape"/>
</filter>
</defs>
</svg>
