<svg width="21" height="25" viewBox="0 0 21 25" fill="none" xmlns="http://www.w3.org/2000/svg">
<path d="M18.974 13.4748C18.974 18.9745 15.1242 21.7243 10.5485 23.3192C10.3089 23.4004 10.0486 23.3965 9.8115 23.3082C5.22477 21.7243 1.375 18.9745 1.375 13.4748V5.77523C1.375 5.48351 1.49089 5.20374 1.69716 4.99746C1.90344 4.79119 2.18321 4.6753 2.47493 4.6753C4.6748 4.6753 7.42464 3.35538 9.33853 1.68348C9.57156 1.48439 9.86799 1.375 10.1745 1.375C10.481 1.375 10.7774 1.48439 11.0104 1.68348C12.9353 3.36638 15.6742 4.6753 17.874 4.6753C18.1657 4.6753 18.4455 4.79119 18.6518 4.99746C18.8581 5.20374 18.974 5.48351 18.974 5.77523V13.4748Z" stroke="white" stroke-width="2.74984" stroke-linecap="round" stroke-linejoin="round"/>
</svg>
