<svg width="80" height="67" viewBox="0 0 80 67" fill="none" xmlns="http://www.w3.org/2000/svg">
<g filter="url(#filter0_dii_650_1640)">
<path d="M8 20C8 11.1634 15.1634 4 24 4H56C64.8366 4 72 11.1634 72 20V38.3984C72 47.235 64.8366 54.3984 56 54.3984H24C15.1634 54.3984 8 47.235 8 38.3984V20Z" fill="url(#paint0_linear_650_1640)" shape-rendering="crispEdges"/>
<path d="M8 20C8 11.1634 15.1634 4 24 4H56C64.8366 4 72 11.1634 72 20V29.1953H8V20Z" fill="url(#paint1_linear_650_1640)"/>
<g filter="url(#filter1_d_650_1640)">
<path d="M44.3955 28.0994L46.5955 30.2994L50.9955 25.8994" stroke="white" stroke-width="2.74984" stroke-linecap="round" stroke-linejoin="round"/>
<path d="M44.3971 39.099V36.899C44.3971 35.7321 43.9335 34.6129 43.1083 33.7878C42.2832 32.9626 41.164 32.499 39.9971 32.499H33.3971C32.2301 32.499 31.111 32.9626 30.2858 33.7878C29.4606 34.6129 28.9971 35.7321 28.9971 36.899V39.099" stroke="white" stroke-width="2.74984" stroke-linecap="round" stroke-linejoin="round"/>
<path d="M36.6969 28.0998C39.1269 28.0998 41.0969 26.1299 41.0969 23.6998C41.0969 21.2698 39.1269 19.2998 36.6969 19.2998C34.2668 19.2998 32.2969 21.2698 32.2969 23.6998C32.2969 26.1299 34.2668 28.0998 36.6969 28.0998Z" stroke="white" stroke-width="2.74984" stroke-linecap="round" stroke-linejoin="round"/>
</g>
</g>
<defs>
<filter id="filter0_dii_650_1640" x="0" y="0" width="80" height="66.3984" filterUnits="userSpaceOnUse" color-interpolation-filters="sRGB">
<feFlood flood-opacity="0" result="BackgroundImageFix"/>
<feColorMatrix in="SourceAlpha" type="matrix" values="0 0 0 0 0 0 0 0 0 0 0 0 0 0 0 0 0 0 127 0" result="hardAlpha"/>
<feOffset dy="4"/>
<feGaussianBlur stdDeviation="4"/>
<feComposite in2="hardAlpha" operator="out"/>
<feColorMatrix type="matrix" values="0 0 0 0 0 0 0 0 0 0 0 0 0 0 0 0 0 0 0.1 0"/>
<feBlend mode="normal" in2="BackgroundImageFix" result="effect1_dropShadow_650_1640"/>
<feBlend mode="normal" in="SourceGraphic" in2="effect1_dropShadow_650_1640" result="shape"/>
<feColorMatrix in="SourceAlpha" type="matrix" values="0 0 0 0 0 0 0 0 0 0 0 0 0 0 0 0 0 0 127 0" result="hardAlpha"/>
<feOffset dy="-2"/>
<feComposite in2="hardAlpha" operator="arithmetic" k2="-1" k3="1"/>
<feColorMatrix type="matrix" values="0 0 0 0 0 0 0 0 0 0 0 0 0 0 0 0 0 0 0.1 0"/>
<feBlend mode="normal" in2="shape" result="effect2_innerShadow_650_1640"/>
<feColorMatrix in="SourceAlpha" type="matrix" values="0 0 0 0 0 0 0 0 0 0 0 0 0 0 0 0 0 0 127 0" result="hardAlpha"/>
<feOffset dy="1"/>
<feComposite in2="hardAlpha" operator="arithmetic" k2="-1" k3="1"/>
<feColorMatrix type="matrix" values="0 0 0 0 1 0 0 0 0 1 0 0 0 0 1 0 0 0 0.3 0"/>
<feBlend mode="normal" in2="effect2_innerShadow_650_1640" result="effect3_innerShadow_650_1640"/>
</filter>
<filter id="filter1_d_650_1640" x="18.7969" y="12" width="42.3984" height="42.3984" filterUnits="userSpaceOnUse" color-interpolation-filters="sRGB">
<feFlood flood-opacity="0" result="BackgroundImageFix"/>
<feColorMatrix in="SourceAlpha" type="matrix" values="0 0 0 0 0 0 0 0 0 0 0 0 0 0 0 0 0 0 127 0" result="hardAlpha"/>
<feOffset dy="4"/>
<feGaussianBlur stdDeviation="4"/>
<feColorMatrix type="matrix" values="0 0 0 0 0 0 0 0 0 0 0 0 0 0 0 0 0 0 0.15 0"/>
<feBlend mode="normal" in2="BackgroundImageFix" result="effect1_dropShadow_650_1640"/>
<feBlend mode="normal" in="SourceGraphic" in2="effect1_dropShadow_650_1640" result="shape"/>
</filter>
<linearGradient id="paint0_linear_650_1640" x1="8" y1="4" x2="56.9934" y2="66.2158" gradientUnits="userSpaceOnUse">
<stop stop-color="#3894A3"/>
<stop offset="1" stop-color="#056170"/>
</linearGradient>
<linearGradient id="paint1_linear_650_1640" x1="40" y1="4" x2="40" y2="29.1953" gradientUnits="userSpaceOnUse">
<stop stop-color="white" stop-opacity="0.2"/>
<stop offset="1" stop-opacity="0"/>
</linearGradient>
</defs>
</svg>
