<svg width="84" height="69" viewBox="0 0 84 69" fill="none" xmlns="http://www.w3.org/2000/svg">
<g filter="url(#filter0_dii_672_3164)">
<path d="M8 20C8 11.1634 15.1634 4 24 4H60C68.8366 4 76 11.1634 76 20V40.7969C76 49.6334 68.8366 56.7969 60 56.7969H24C15.1634 56.7969 8 49.6334 8 40.7969V20Z" fill="url(#paint0_linear_672_3164)" shape-rendering="crispEdges"/>
<path d="M8 20C8 11.1634 15.1634 4 24 4H60C68.8366 4 76 11.1634 76 20V30.3984H8V20Z" fill="url(#paint1_linear_672_3164)"/>
<g filter="url(#filter1_d_672_3164)">
<path d="M51.5986 21.9995H32.4007C31.0754 21.9995 30.001 23.0739 30.001 24.3993V36.398C30.001 37.7233 31.0754 38.7977 32.4007 38.7977H51.5986C52.924 38.7977 53.9984 37.7233 53.9984 36.398V24.3993C53.9984 23.0739 52.924 21.9995 51.5986 21.9995Z" stroke="white" stroke-width="2.99967" stroke-linecap="round" stroke-linejoin="round"/>
<path d="M30.001 27.9985H53.9984" stroke="white" stroke-width="2.99967" stroke-linecap="round" stroke-linejoin="round"/>
</g>
</g>
<defs>
<filter id="filter0_dii_672_3164" x="0" y="0" width="84" height="68.7969" filterUnits="userSpaceOnUse" color-interpolation-filters="sRGB">
<feFlood flood-opacity="0" result="BackgroundImageFix"/>
<feColorMatrix in="SourceAlpha" type="matrix" values="0 0 0 0 0 0 0 0 0 0 0 0 0 0 0 0 0 0 127 0" result="hardAlpha"/>
<feOffset dy="4"/>
<feGaussianBlur stdDeviation="4"/>
<feComposite in2="hardAlpha" operator="out"/>
<feColorMatrix type="matrix" values="0 0 0 0 0 0 0 0 0 0 0 0 0 0 0 0 0 0 0.1 0"/>
<feBlend mode="normal" in2="BackgroundImageFix" result="effect1_dropShadow_672_3164"/>
<feBlend mode="normal" in="SourceGraphic" in2="effect1_dropShadow_672_3164" result="shape"/>
<feColorMatrix in="SourceAlpha" type="matrix" values="0 0 0 0 0 0 0 0 0 0 0 0 0 0 0 0 0 0 127 0" result="hardAlpha"/>
<feOffset dy="-2"/>
<feComposite in2="hardAlpha" operator="arithmetic" k2="-1" k3="1"/>
<feColorMatrix type="matrix" values="0 0 0 0 0 0 0 0 0 0 0 0 0 0 0 0 0 0 0.1 0"/>
<feBlend mode="normal" in2="shape" result="effect2_innerShadow_672_3164"/>
<feColorMatrix in="SourceAlpha" type="matrix" values="0 0 0 0 0 0 0 0 0 0 0 0 0 0 0 0 0 0 127 0" result="hardAlpha"/>
<feOffset dy="1"/>
<feComposite in2="hardAlpha" operator="arithmetic" k2="-1" k3="1"/>
<feColorMatrix type="matrix" values="0 0 0 0 1 0 0 0 0 1 0 0 0 0 1 0 0 0 0.3 0"/>
<feBlend mode="normal" in2="effect2_innerShadow_672_3164" result="effect3_innerShadow_672_3164"/>
</filter>
<filter id="filter1_d_672_3164" x="19.6016" y="12" width="44.7969" height="44.7969" filterUnits="userSpaceOnUse" color-interpolation-filters="sRGB">
<feFlood flood-opacity="0" result="BackgroundImageFix"/>
<feColorMatrix in="SourceAlpha" type="matrix" values="0 0 0 0 0 0 0 0 0 0 0 0 0 0 0 0 0 0 127 0" result="hardAlpha"/>
<feOffset dy="4"/>
<feGaussianBlur stdDeviation="4"/>
<feColorMatrix type="matrix" values="0 0 0 0 0 0 0 0 0 0 0 0 0 0 0 0 0 0 0.15 0"/>
<feBlend mode="normal" in2="BackgroundImageFix" result="effect1_dropShadow_672_3164"/>
<feBlend mode="normal" in="SourceGraphic" in2="effect1_dropShadow_672_3164" result="shape"/>
</filter>
<linearGradient id="paint0_linear_672_3164" x1="8" y1="4" x2="59.1504" y2="69.8794" gradientUnits="userSpaceOnUse">
<stop stop-color="#3894A3"/>
<stop offset="1" stop-color="#056170"/>
</linearGradient>
<linearGradient id="paint1_linear_672_3164" x1="42" y1="4" x2="42" y2="30.3984" gradientUnits="userSpaceOnUse">
<stop stop-color="white" stop-opacity="0.2"/>
<stop offset="1" stop-opacity="0"/>
</linearGradient>
</defs>
</svg>
