<svg width="84" height="69" viewBox="0 0 84 69" fill="none" xmlns="http://www.w3.org/2000/svg">
<g filter="url(#filter0_dii_672_3148)">
<path d="M8 20C8 11.1634 15.1634 4 24 4H60C68.8366 4 76 11.1634 76 20V40.7969C76 49.6334 68.8366 56.7969 60 56.7969H24C15.1634 56.7969 8 49.6334 8 40.7969V20Z" fill="url(#paint0_linear_672_3148)" shape-rendering="crispEdges"/>
<path d="M8 20C8 11.1634 15.1634 4 24 4H60C68.8366 4 76 11.1634 76 20V30.3984H8V20Z" fill="url(#paint1_linear_672_3148)"/>
<g filter="url(#filter1_d_672_3148)">
<path d="M39.9219 41.1973C40.1325 41.5621 40.4355 41.865 40.8003 42.0757C41.1652 42.2863 41.579 42.3972 42.0003 42.3972C42.4215 42.3972 42.8354 42.2863 43.2002 42.0757C43.5651 41.865 43.868 41.5621 44.0787 41.1973" stroke="white" stroke-width="2.99967" stroke-linecap="round" stroke-linejoin="round"/>
<path d="M31.5156 34.3894C31.3589 34.5612 31.2555 34.7748 31.2179 35.0043C31.1803 35.2338 31.2103 35.4693 31.3041 35.6821C31.3979 35.8949 31.5516 36.0759 31.7463 36.2029C31.9411 36.33 32.1686 36.3978 32.4011 36.3979H51.5991C51.8316 36.398 52.0591 36.3305 52.254 36.2037C52.4489 36.0768 52.6027 35.8961 52.6968 35.6834C52.7909 35.4708 52.8211 35.2354 52.7839 35.0058C52.7466 34.7763 52.6435 34.5626 52.487 34.3906C50.8911 32.7455 49.1993 30.9973 49.1993 25.5991C49.1993 23.6898 48.4408 21.8586 47.0907 20.5085C45.7406 19.1584 43.9095 18.3999 42.0001 18.3999C40.0907 18.3999 38.2596 19.1584 36.9095 20.5085C35.5594 21.8586 34.8009 23.6898 34.8009 25.5991C34.8009 30.9973 33.1079 32.7455 31.5156 34.3894Z" stroke="white" stroke-width="2.99967" stroke-linecap="round" stroke-linejoin="round"/>
</g>
</g>
<defs>
<filter id="filter0_dii_672_3148" x="0" y="0" width="84" height="68.7969" filterUnits="userSpaceOnUse" color-interpolation-filters="sRGB">
<feFlood flood-opacity="0" result="BackgroundImageFix"/>
<feColorMatrix in="SourceAlpha" type="matrix" values="0 0 0 0 0 0 0 0 0 0 0 0 0 0 0 0 0 0 127 0" result="hardAlpha"/>
<feOffset dy="4"/>
<feGaussianBlur stdDeviation="4"/>
<feComposite in2="hardAlpha" operator="out"/>
<feColorMatrix type="matrix" values="0 0 0 0 0 0 0 0 0 0 0 0 0 0 0 0 0 0 0.1 0"/>
<feBlend mode="normal" in2="BackgroundImageFix" result="effect1_dropShadow_672_3148"/>
<feBlend mode="normal" in="SourceGraphic" in2="effect1_dropShadow_672_3148" result="shape"/>
<feColorMatrix in="SourceAlpha" type="matrix" values="0 0 0 0 0 0 0 0 0 0 0 0 0 0 0 0 0 0 127 0" result="hardAlpha"/>
<feOffset dy="-2"/>
<feComposite in2="hardAlpha" operator="arithmetic" k2="-1" k3="1"/>
<feColorMatrix type="matrix" values="0 0 0 0 0 0 0 0 0 0 0 0 0 0 0 0 0 0 0.1 0"/>
<feBlend mode="normal" in2="shape" result="effect2_innerShadow_672_3148"/>
<feColorMatrix in="SourceAlpha" type="matrix" values="0 0 0 0 0 0 0 0 0 0 0 0 0 0 0 0 0 0 127 0" result="hardAlpha"/>
<feOffset dy="1"/>
<feComposite in2="hardAlpha" operator="arithmetic" k2="-1" k3="1"/>
<feColorMatrix type="matrix" values="0 0 0 0 1 0 0 0 0 1 0 0 0 0 1 0 0 0 0.3 0"/>
<feBlend mode="normal" in2="effect2_innerShadow_672_3148" result="effect3_innerShadow_672_3148"/>
</filter>
<filter id="filter1_d_672_3148" x="19.6016" y="12" width="44.7969" height="44.7969" filterUnits="userSpaceOnUse" color-interpolation-filters="sRGB">
<feFlood flood-opacity="0" result="BackgroundImageFix"/>
<feColorMatrix in="SourceAlpha" type="matrix" values="0 0 0 0 0 0 0 0 0 0 0 0 0 0 0 0 0 0 127 0" result="hardAlpha"/>
<feOffset dy="4"/>
<feGaussianBlur stdDeviation="4"/>
<feColorMatrix type="matrix" values="0 0 0 0 0 0 0 0 0 0 0 0 0 0 0 0 0 0 0.15 0"/>
<feBlend mode="normal" in2="BackgroundImageFix" result="effect1_dropShadow_672_3148"/>
<feBlend mode="normal" in="SourceGraphic" in2="effect1_dropShadow_672_3148" result="shape"/>
</filter>
<linearGradient id="paint0_linear_672_3148" x1="8" y1="4" x2="59.1504" y2="69.8794" gradientUnits="userSpaceOnUse">
<stop stop-color="#2F414F"/>
<stop offset="1" stop-color="#000E1C"/>
</linearGradient>
<linearGradient id="paint1_linear_672_3148" x1="42" y1="4" x2="42" y2="30.3984" gradientUnits="userSpaceOnUse">
<stop stop-color="white" stop-opacity="0.2"/>
<stop offset="1" stop-opacity="0"/>
</linearGradient>
</defs>
</svg>
