<svg width="84" height="69" viewBox="0 0 84 69" fill="none" xmlns="http://www.w3.org/2000/svg">
<g filter="url(#filter0_dii_672_3053)">
<path d="M8 20C8 11.1634 15.1634 4 24 4H60C68.8366 4 76 11.1634 76 20V40.7969C76 49.6334 68.8366 56.7969 60 56.7969H24C15.1634 56.7969 8 49.6334 8 40.7969V20Z" fill="url(#paint0_linear_672_3053)" shape-rendering="crispEdges"/>
<path d="M8 20C8 11.1634 15.1634 4 24 4H60C68.8366 4 76 11.1634 76 20V30.3984H8V20Z" fill="url(#paint1_linear_672_3053)"/>
<g filter="url(#filter1_d_672_3053)">
<path d="M30.076 30.8159C29.976 30.5465 29.976 30.2502 30.076 29.9808C31.0499 27.6193 32.7031 25.6001 34.826 24.1793C36.9489 22.7585 39.4458 22 42.0003 22C44.5548 22 47.0517 22.7585 49.1746 24.1793C51.2975 25.6001 52.9507 27.6193 53.9246 29.9808C54.0246 30.2502 54.0246 30.5465 53.9246 30.8159C52.9507 33.1774 51.2975 35.1966 49.1746 36.6174C47.0517 38.0382 44.5548 38.7967 42.0003 38.7967C39.4458 38.7967 36.9489 38.0382 34.826 36.6174C32.7031 35.1966 31.0499 33.1774 30.076 30.8159Z" stroke="white" stroke-width="2.99967" stroke-linecap="round" stroke-linejoin="round"/>
<path d="M42.0004 33.9988C43.9886 33.9988 45.6004 32.3871 45.6004 30.3988C45.6004 28.4106 43.9886 26.7988 42.0004 26.7988C40.0122 26.7988 38.4004 28.4106 38.4004 30.3988C38.4004 32.3871 40.0122 33.9988 42.0004 33.9988Z" stroke="white" stroke-width="2.99967" stroke-linecap="round" stroke-linejoin="round"/>
</g>
</g>
<defs>
<filter id="filter0_dii_672_3053" x="0" y="0" width="84" height="68.7969" filterUnits="userSpaceOnUse" color-interpolation-filters="sRGB">
<feFlood flood-opacity="0" result="BackgroundImageFix"/>
<feColorMatrix in="SourceAlpha" type="matrix" values="0 0 0 0 0 0 0 0 0 0 0 0 0 0 0 0 0 0 127 0" result="hardAlpha"/>
<feOffset dy="4"/>
<feGaussianBlur stdDeviation="4"/>
<feComposite in2="hardAlpha" operator="out"/>
<feColorMatrix type="matrix" values="0 0 0 0 0 0 0 0 0 0 0 0 0 0 0 0 0 0 0.1 0"/>
<feBlend mode="normal" in2="BackgroundImageFix" result="effect1_dropShadow_672_3053"/>
<feBlend mode="normal" in="SourceGraphic" in2="effect1_dropShadow_672_3053" result="shape"/>
<feColorMatrix in="SourceAlpha" type="matrix" values="0 0 0 0 0 0 0 0 0 0 0 0 0 0 0 0 0 0 127 0" result="hardAlpha"/>
<feOffset dy="-2"/>
<feComposite in2="hardAlpha" operator="arithmetic" k2="-1" k3="1"/>
<feColorMatrix type="matrix" values="0 0 0 0 0 0 0 0 0 0 0 0 0 0 0 0 0 0 0.1 0"/>
<feBlend mode="normal" in2="shape" result="effect2_innerShadow_672_3053"/>
<feColorMatrix in="SourceAlpha" type="matrix" values="0 0 0 0 0 0 0 0 0 0 0 0 0 0 0 0 0 0 127 0" result="hardAlpha"/>
<feOffset dy="1"/>
<feComposite in2="hardAlpha" operator="arithmetic" k2="-1" k3="1"/>
<feColorMatrix type="matrix" values="0 0 0 0 1 0 0 0 0 1 0 0 0 0 1 0 0 0 0.3 0"/>
<feBlend mode="normal" in2="effect2_innerShadow_672_3053" result="effect3_innerShadow_672_3053"/>
</filter>
<filter id="filter1_d_672_3053" x="19.6016" y="12" width="44.7969" height="44.7969" filterUnits="userSpaceOnUse" color-interpolation-filters="sRGB">
<feFlood flood-opacity="0" result="BackgroundImageFix"/>
<feColorMatrix in="SourceAlpha" type="matrix" values="0 0 0 0 0 0 0 0 0 0 0 0 0 0 0 0 0 0 127 0" result="hardAlpha"/>
<feOffset dy="4"/>
<feGaussianBlur stdDeviation="4"/>
<feColorMatrix type="matrix" values="0 0 0 0 0 0 0 0 0 0 0 0 0 0 0 0 0 0 0.15 0"/>
<feBlend mode="normal" in2="BackgroundImageFix" result="effect1_dropShadow_672_3053"/>
<feBlend mode="normal" in="SourceGraphic" in2="effect1_dropShadow_672_3053" result="shape"/>
</filter>
<linearGradient id="paint0_linear_672_3053" x1="8" y1="4" x2="59.1504" y2="69.8794" gradientUnits="userSpaceOnUse">
<stop stop-color="#2F414F"/>
<stop offset="1" stop-color="#000E1C"/>
</linearGradient>
<linearGradient id="paint1_linear_672_3053" x1="42" y1="4" x2="42" y2="30.3984" gradientUnits="userSpaceOnUse">
<stop stop-color="white" stop-opacity="0.2"/>
<stop offset="1" stop-opacity="0"/>
</linearGradient>
</defs>
</svg>
