<svg width="84" height="69" viewBox="0 0 84 69" fill="none" xmlns="http://www.w3.org/2000/svg">
<g filter="url(#filter0_dii_672_3242)">
<path d="M8 20C8 11.1634 15.1634 4 24 4H60C68.8366 4 76 11.1634 76 20V40.7969C76 49.6334 68.8366 56.7969 60 56.7969H24C15.1634 56.7969 8 49.6334 8 40.7969V20Z" fill="url(#paint0_linear_672_3242)" shape-rendering="crispEdges"/>
<path d="M8 20C8 11.1634 15.1634 4 24 4H60C68.8366 4 76 11.1634 76 20V30.3984H8V20Z" fill="url(#paint1_linear_672_3242)"/>
<g filter="url(#filter1_d_672_3242)">
<path d="M41.4299 18.7537C41.4825 18.6475 41.5638 18.5581 41.6645 18.4956C41.7652 18.433 41.8813 18.3999 41.9999 18.3999C42.1184 18.3999 42.2346 18.433 42.3353 18.4956C42.436 18.5581 42.5172 18.6475 42.5698 18.7537L45.3415 24.3679C45.5241 24.7374 45.7936 25.0571 46.127 25.2996C46.4603 25.542 46.8475 25.6999 47.2553 25.7598L53.4538 26.6669C53.5713 26.6839 53.6816 26.7334 53.7724 26.8099C53.8632 26.8864 53.9307 26.9867 53.9674 27.0996C54.0041 27.2124 54.0085 27.3333 53.9801 27.4485C53.9517 27.5637 53.8916 27.6687 53.8066 27.7516L49.3239 32.1167C49.0283 32.4048 48.8071 32.7604 48.6794 33.1529C48.5517 33.5455 48.5212 33.9632 48.5908 34.37L49.6491 40.5374C49.6698 40.6548 49.6571 40.7756 49.6125 40.8862C49.5678 40.9967 49.493 41.0924 49.3965 41.1625C49.3001 41.2326 49.1859 41.2741 49.067 41.2824C48.948 41.2906 48.8292 41.2653 48.724 41.2093L43.183 38.296C42.8179 38.1043 42.4117 38.0041 41.9993 38.0041C41.5869 38.0041 41.1807 38.1043 40.8156 38.296L35.2758 41.2093C35.1706 41.265 35.0519 41.29 34.9332 41.2816C34.8145 41.2732 34.7005 41.2316 34.6042 41.1616C34.508 41.0916 34.4333 40.9959 34.3887 40.8856C34.3441 40.7753 34.3313 40.6546 34.3519 40.5374L35.409 34.3712C35.4788 33.9642 35.4486 33.5462 35.3209 33.1534C35.1931 32.7607 34.9718 32.4048 34.6759 32.1167L30.1932 27.7528C30.1075 27.67 30.0468 27.5649 30.0179 27.4493C29.9891 27.3337 29.9933 27.2124 30.0301 27.0991C30.0668 26.9858 30.1347 26.8851 30.2259 26.8084C30.3171 26.7318 30.428 26.6824 30.5459 26.6657L36.7433 25.7598C37.1515 25.7004 37.5392 25.5427 37.873 25.3002C38.2068 25.0578 38.4767 24.7378 38.6594 24.3679L41.4299 18.7537Z" stroke="white" stroke-width="2.99967" stroke-linecap="round" stroke-linejoin="round"/>
</g>
</g>
<defs>
<filter id="filter0_dii_672_3242" x="0" y="0" width="84" height="68.7969" filterUnits="userSpaceOnUse" color-interpolation-filters="sRGB">
<feFlood flood-opacity="0" result="BackgroundImageFix"/>
<feColorMatrix in="SourceAlpha" type="matrix" values="0 0 0 0 0 0 0 0 0 0 0 0 0 0 0 0 0 0 127 0" result="hardAlpha"/>
<feOffset dy="4"/>
<feGaussianBlur stdDeviation="4"/>
<feComposite in2="hardAlpha" operator="out"/>
<feColorMatrix type="matrix" values="0 0 0 0 0 0 0 0 0 0 0 0 0 0 0 0 0 0 0.1 0"/>
<feBlend mode="normal" in2="BackgroundImageFix" result="effect1_dropShadow_672_3242"/>
<feBlend mode="normal" in="SourceGraphic" in2="effect1_dropShadow_672_3242" result="shape"/>
<feColorMatrix in="SourceAlpha" type="matrix" values="0 0 0 0 0 0 0 0 0 0 0 0 0 0 0 0 0 0 127 0" result="hardAlpha"/>
<feOffset dy="-2"/>
<feComposite in2="hardAlpha" operator="arithmetic" k2="-1" k3="1"/>
<feColorMatrix type="matrix" values="0 0 0 0 0 0 0 0 0 0 0 0 0 0 0 0 0 0 0.1 0"/>
<feBlend mode="normal" in2="shape" result="effect2_innerShadow_672_3242"/>
<feColorMatrix in="SourceAlpha" type="matrix" values="0 0 0 0 0 0 0 0 0 0 0 0 0 0 0 0 0 0 127 0" result="hardAlpha"/>
<feOffset dy="1"/>
<feComposite in2="hardAlpha" operator="arithmetic" k2="-1" k3="1"/>
<feColorMatrix type="matrix" values="0 0 0 0 1 0 0 0 0 1 0 0 0 0 1 0 0 0 0.3 0"/>
<feBlend mode="normal" in2="effect2_innerShadow_672_3242" result="effect3_innerShadow_672_3242"/>
</filter>
<filter id="filter1_d_672_3242" x="19.6016" y="12" width="44.7969" height="44.7969" filterUnits="userSpaceOnUse" color-interpolation-filters="sRGB">
<feFlood flood-opacity="0" result="BackgroundImageFix"/>
<feColorMatrix in="SourceAlpha" type="matrix" values="0 0 0 0 0 0 0 0 0 0 0 0 0 0 0 0 0 0 127 0" result="hardAlpha"/>
<feOffset dy="4"/>
<feGaussianBlur stdDeviation="4"/>
<feColorMatrix type="matrix" values="0 0 0 0 0 0 0 0 0 0 0 0 0 0 0 0 0 0 0.15 0"/>
<feBlend mode="normal" in2="BackgroundImageFix" result="effect1_dropShadow_672_3242"/>
<feBlend mode="normal" in="SourceGraphic" in2="effect1_dropShadow_672_3242" result="shape"/>
</filter>
<linearGradient id="paint0_linear_672_3242" x1="8" y1="4" x2="59.1504" y2="69.8794" gradientUnits="userSpaceOnUse">
<stop stop-color="#2F414F"/>
<stop offset="1" stop-color="#000E1C"/>
</linearGradient>
<linearGradient id="paint1_linear_672_3242" x1="42" y1="4" x2="42" y2="30.3984" gradientUnits="userSpaceOnUse">
<stop stop-color="white" stop-opacity="0.2"/>
<stop offset="1" stop-opacity="0"/>
</linearGradient>
</defs>
</svg>
