<svg width="41" height="38" viewBox="0 0 41 38" fill="none" xmlns="http://www.w3.org/2000/svg">
<g filter="url(#filter0_d_1245_261)">
<path d="M9.375 11.4424C9.37502 10.2184 9.74633 9.02319 10.4399 8.01464C11.1334 7.00609 12.1166 6.23164 13.2595 5.79358C14.4025 5.35552 15.6514 5.27446 16.8414 5.56111C18.0313 5.84775 19.1064 6.48861 19.9245 7.39905C19.9821 7.46066 20.0518 7.50978 20.1291 7.54336C20.2065 7.57694 20.29 7.59427 20.3743 7.59427C20.4587 7.59427 20.5422 7.57694 20.6196 7.54336C20.6969 7.50978 20.7666 7.46066 20.8242 7.39905C21.6398 6.48269 22.715 5.83645 23.9069 5.54632C25.0988 5.25619 26.3508 5.33595 27.4963 5.77498C28.6417 6.214 29.6263 6.99147 30.319 8.0039C31.0117 9.01634 31.3795 10.2157 31.3737 11.4424C31.3737 13.9613 29.7238 15.8421 28.0739 17.4921L22.0331 23.336C21.8281 23.5714 21.5754 23.7605 21.2917 23.8907C21.0081 24.0209 20.7 24.0893 20.3879 24.0913C20.0758 24.0932 19.7668 24.0288 19.4815 23.9022C19.1962 23.7756 18.9412 23.5897 18.7332 23.3569L12.6748 17.4921C11.0249 15.8421 9.375 13.9723 9.375 11.4424Z" stroke="white" stroke-width="2.74984" stroke-linecap="round" stroke-linejoin="round"/>
</g>
<defs>
<filter id="filter0_d_1245_261" x="-0.825195" y="-3.00732" width="42.3984" height="42.3984" filterUnits="userSpaceOnUse" color-interpolation-filters="sRGB">
<feFlood flood-opacity="0" result="BackgroundImageFix"/>
<feColorMatrix in="SourceAlpha" type="matrix" values="0 0 0 0 0 0 0 0 0 0 0 0 0 0 0 0 0 0 127 0" result="hardAlpha"/>
<feOffset dy="4"/>
<feGaussianBlur stdDeviation="4"/>
<feColorMatrix type="matrix" values="0 0 0 0 0 0 0 0 0 0 0 0 0 0 0 0 0 0 0.15 0"/>
<feBlend mode="normal" in2="BackgroundImageFix" result="effect1_dropShadow_1245_261"/>
<feBlend mode="normal" in="SourceGraphic" in2="effect1_dropShadow_1245_261" result="shape"/>
</filter>
</defs>
</svg>
