<svg width="39" height="43" viewBox="0 0 39 43" fill="none" xmlns="http://www.w3.org/2000/svg">
<g filter="url(#filter0_d_655_3743)">
<path d="M28.6979 18.6991C28.6979 24.6985 24.4984 27.6981 19.5069 29.4379C19.2455 29.5265 18.9616 29.5223 18.703 29.4259C13.6995 27.6981 9.5 24.6985 9.5 18.6991V10.3C9.5 9.98179 9.62641 9.6766 9.85143 9.45158C10.0765 9.22656 10.3816 9.10015 10.6999 9.10015C13.0996 9.10015 16.0993 7.66031 18.1871 5.8365C18.4413 5.61933 18.7646 5.5 19.099 5.5C19.4333 5.5 19.7567 5.61933 20.0109 5.8365C22.1106 7.6723 25.0983 9.10015 27.498 9.10015C27.8163 9.10015 28.1215 9.22656 28.3465 9.45158C28.5715 9.6766 28.6979 9.98179 28.6979 10.3V18.6991Z" stroke="white" stroke-width="2.99967" stroke-linecap="round" stroke-linejoin="round"/>
</g>
<defs>
<filter id="filter0_d_655_3743" x="-3.2998" y="-0.899414" width="44.7969" height="44.7969" filterUnits="userSpaceOnUse" color-interpolation-filters="sRGB">
<feFlood flood-opacity="0" result="BackgroundImageFix"/>
<feColorMatrix in="SourceAlpha" type="matrix" values="0 0 0 0 0 0 0 0 0 0 0 0 0 0 0 0 0 0 127 0" result="hardAlpha"/>
<feOffset dy="4"/>
<feGaussianBlur stdDeviation="4"/>
<feColorMatrix type="matrix" values="0 0 0 0 0 0 0 0 0 0 0 0 0 0 0 0 0 0 0.15 0"/>
<feBlend mode="normal" in2="BackgroundImageFix" result="effect1_dropShadow_655_3743"/>
<feBlend mode="normal" in="SourceGraphic" in2="effect1_dropShadow_655_3743" result="shape"/>
</filter>
</defs>
</svg>
