<svg width="25" height="22" viewBox="0 0 25 22" fill="none" xmlns="http://www.w3.org/2000/svg">
<path d="M1.375 7.44241C1.37502 6.2184 1.74633 5.02319 2.43988 4.01464C3.13344 3.00609 4.11661 2.23164 5.25954 1.79358C6.40247 1.35552 7.6514 1.27446 8.84137 1.56111C10.0313 1.84775 11.1064 2.48861 11.9245 3.39905C11.9821 3.46066 12.0518 3.50978 12.1291 3.54336C12.2065 3.57694 12.29 3.59427 12.3743 3.59427C12.4587 3.59427 12.5422 3.57694 12.6196 3.54336C12.6969 3.50978 12.7666 3.46066 12.8242 3.39905C13.6398 2.48269 14.715 1.83645 15.9069 1.54632C17.0988 1.25619 18.3508 1.33595 19.4963 1.77498C20.6417 2.214 21.6263 2.99147 22.319 4.0039C23.0117 5.01634 23.3795 6.21572 23.3737 7.44241C23.3737 9.96126 21.7238 11.8421 20.0739 13.4921L14.0331 19.336C13.8281 19.5714 13.5754 19.7605 13.2917 19.8907C13.0081 20.0209 12.7 20.0893 12.3879 20.0913C12.0758 20.0932 11.7668 20.0288 11.4815 19.9022C11.1962 19.7756 10.9412 19.5897 10.7332 19.3569L4.6748 13.4921C3.0249 11.8421 1.375 9.97226 1.375 7.44241Z" stroke="white" stroke-width="2.74984" stroke-linecap="round" stroke-linejoin="round"/>
</svg>
