<svg width="41" height="35" viewBox="0 0 41 35" fill="none" xmlns="http://www.w3.org/2000/svg">
<g filter="url(#filter0_d_655_7276)">
<path d="M9.44375 13.5821C9.35208 13.3352 9.35208 13.0635 9.44375 12.8166C10.3366 10.6517 11.8521 8.80076 13.7981 7.49828C15.7442 6.1958 18.0332 5.50049 20.3749 5.50049C22.7166 5.50049 25.0056 6.1958 26.9517 7.49828C28.8977 8.80076 30.4132 10.6517 31.3061 12.8166C31.3977 13.0635 31.3977 13.3352 31.3061 13.5821C30.4132 15.747 28.8977 17.598 26.9517 18.9004C25.0056 20.2029 22.7166 20.8982 20.3749 20.8982C18.0332 20.8982 15.7442 20.2029 13.7981 18.9004C11.8521 17.598 10.3366 15.747 9.44375 13.5821Z" stroke="white" stroke-width="2.74984" stroke-linecap="round" stroke-linejoin="round"/>
<path d="M20.3762 16.4994C22.1987 16.4994 23.6762 15.022 23.6762 13.1994C23.6762 11.3769 22.1987 9.89941 20.3762 9.89941C18.5536 9.89941 17.0762 11.3769 17.0762 13.1994C17.0762 15.022 18.5536 16.4994 20.3762 16.4994Z" stroke="white" stroke-width="2.74984" stroke-linecap="round" stroke-linejoin="round"/>
</g>
<defs>
<filter id="filter0_d_655_7276" x="-0.824219" y="-4" width="42.3984" height="42.3984" filterUnits="userSpaceOnUse" color-interpolation-filters="sRGB">
<feFlood flood-opacity="0" result="BackgroundImageFix"/>
<feColorMatrix in="SourceAlpha" type="matrix" values="0 0 0 0 0 0 0 0 0 0 0 0 0 0 0 0 0 0 127 0" result="hardAlpha"/>
<feOffset dy="4"/>
<feGaussianBlur stdDeviation="4"/>
<feColorMatrix type="matrix" values="0 0 0 0 0 0 0 0 0 0 0 0 0 0 0 0 0 0 0.15 0"/>
<feBlend mode="normal" in2="BackgroundImageFix" result="effect1_dropShadow_655_7276"/>
<feBlend mode="normal" in="SourceGraphic" in2="effect1_dropShadow_655_7276" result="shape"/>
</filter>
</defs>
</svg>
