<svg width="52" height="49" viewBox="0 0 52 49" fill="none" xmlns="http://www.w3.org/2000/svg">
<g filter="url(#filter0_d_655_4642)">
<path d="M32.4 34.7992V31.5992C32.4 29.9018 31.7257 28.274 30.5255 27.0737C29.3253 25.8735 27.6974 25.1992 26 25.1992H16.4C14.7026 25.1992 13.0747 25.8735 11.8745 27.0737C10.6743 28.274 10 29.9018 10 31.5992V34.7992" stroke="white" stroke-width="3.99984" stroke-linecap="round" stroke-linejoin="round"/>
<path d="M32.3984 6.20508C33.7708 6.56087 34.9863 7.3623 35.8539 8.48358C36.7216 9.60486 37.1924 10.9825 37.1924 12.4003C37.1924 13.8181 36.7216 15.1957 35.8539 16.317C34.9863 17.4383 33.7708 18.2397 32.3984 18.5955" stroke="white" stroke-width="3.99984" stroke-linecap="round" stroke-linejoin="round"/>
<path d="M41.9982 34.7992V31.5992C41.9972 30.1812 41.5252 28.8037 40.6564 27.6829C39.7876 26.5622 38.5712 25.7617 37.1982 25.4072" stroke="white" stroke-width="3.99984" stroke-linecap="round" stroke-linejoin="round"/>
<path d="M21.1998 18.8C24.7344 18.8 27.5998 15.9346 27.5998 12.4C27.5998 8.86538 24.7344 6 21.1998 6C17.6652 6 14.7998 8.86538 14.7998 12.4C14.7998 15.9346 17.6652 18.8 21.1998 18.8Z" stroke="white" stroke-width="3.99984" stroke-linecap="round" stroke-linejoin="round"/>
</g>
<defs>
<filter id="filter0_d_655_4642" x="-1.2002" y="-2.7998" width="54.3984" height="54.3984" filterUnits="userSpaceOnUse" color-interpolation-filters="sRGB">
<feFlood flood-opacity="0" result="BackgroundImageFix"/>
<feColorMatrix in="SourceAlpha" type="matrix" values="0 0 0 0 0 0 0 0 0 0 0 0 0 0 0 0 0 0 127 0" result="hardAlpha"/>
<feOffset dy="4"/>
<feGaussianBlur stdDeviation="4"/>
<feColorMatrix type="matrix" values="0 0 0 0 0 0 0 0 0 0 0 0 0 0 0 0 0 0 0.15 0"/>
<feBlend mode="normal" in2="BackgroundImageFix" result="effect1_dropShadow_655_4642"/>
<feBlend mode="normal" in="SourceGraphic" in2="effect1_dropShadow_655_4642" result="shape"/>
</filter>
</defs>
</svg>
